# xmcd CD database file
#
# Track frame offsets:
#	150
#	9461
#	20101
#	29556
#	40792
#	53328
#	63624
#	75626
#	91359
#	104322
#	114067
#	125192
#	136460
#	146324
#	159584
#
# Disc length: 2283 seconds
#
# Revision: 0
# Processed by: cddbd v1.5.2PL0 Copyright (c) Steve Scherf et al.
# Submitted via: CDex 1.51
#
DISCID=c208e90f
DTITLE=Johnny Paycheck - On His Way
DYEAR=1965
DGENRE=Country
TTITLE0=I'd Rather Be Your Fool
TTITLE1=A-11
TTITLE2=Where In The World
TTITLE3=Heartbreak, TN
TTITLE4=Help Me Hank, I'm Falling
TTITLE5=I'm Barely Hangin' On
TTITLE6=Don't Tell My Wife
TTITLE7=Handcuffed To Love
TTITLE8=Pride Covered Ears
TTITLE9=The Weels Fell Off The Wagon
TTITLE10=He's In A Hurry
TTITLE11=The Meanest Jukebox
TTITLE12=If You Should Come Back Today
TTITLE13=The Little Folks
TTITLE14=The Lovin' Machine
EXTD=YEAR: 1965
EXTT0=
EXTT1=
EXTT2=
EXTT3=
EXTT4=
EXTT5=
EXTT6=
EXTT7=
EXTT8=
EXTT9=
EXTT10=
EXTT11=
EXTT12=
EXTT13=
EXTT14=
PLAYORDER=
